<svg width="72" height="72" xmlns="http://www.w3.org/2000/svg">

 <g>
  <title>Layer 1</title>
  <rect stroke="#000" id="svg_3" height="110.84745" width="130.50846" y="-19.42372" x="-20.27118" fill="#3f332c"/>
  <g>
   <g id="svg_2">
    <path fill="#fff" d="m11.5,23.60593c0,-3.03516 2.44141,-5.5 5.44531,-5.5l38.10938,0c3.0039,0 5.44531,2.46484 5.44531,5.5l0,27.5c0,3.03516 -2.44141,5.5 -5.44531,5.5l-38.10938,0c-3.0039,0 -5.44531,-2.46484 -5.44531,-5.5l0,-27.5zm10.89063,16.5c1.5,0 2.71875,-1.23047 2.71875,-2.75c0,-1.51953 -1.21875,-2.75 -2.71875,-2.75c-1.50391,0 -2.72266,1.23047 -2.72266,2.75c0,1.51953 1.21875,2.75 2.72266,2.75zm2.71875,-11c0,-1.51953 -1.21875,-2.75 -2.71875,-2.75c-1.50391,0 -2.72266,1.23047 -2.72266,2.75c0,1.51953 1.21875,2.75 2.72266,2.75c1.5,0 2.71875,-1.23047 2.71875,-2.75zm-2.71875,19.25c1.5,0 2.71875,-1.23047 2.71875,-2.75c0,-1.51953 -1.21875,-2.75 -2.71875,-2.75c-1.50391,0 -2.72266,1.23047 -2.72266,2.75c0,1.51953 1.21875,2.75 2.72266,2.75zm8.16406,-21.3125c-1.12891,0 -2.03906,0.91797 -2.03906,2.0625c0,1.14453 0.91015,2.0625 2.03906,2.0625l19.05469,0c1.13281,0 2.04296,-0.91797 2.04296,-2.0625c0,-1.14453 -0.91015,-2.0625 -2.04296,-2.0625l-19.05469,0zm0,8.25c-1.12891,0 -2.03906,0.91797 -2.03906,2.0625c0,1.14453 0.91015,2.0625 2.03906,2.0625l19.05469,0c1.13281,0 2.04296,-0.91797 2.04296,-2.0625c0,-1.14453 -0.91015,-2.0625 -2.04296,-2.0625l-19.05469,0zm0,8.25c-1.12891,0 -2.03906,0.91797 -2.03906,2.0625c0,1.14453 0.91015,2.0625 2.03906,2.0625l19.05469,0c1.13281,0 2.04296,-0.91797 2.04296,-2.0625c0,-1.14453 -0.91015,-2.0625 -2.04296,-2.0625l-19.05469,0zm0,0"/>
   </g>
  </g>
 </g>
</svg>